<?xml version="1.0" encoding="UTF-8" standalone="no"?>
<!DOCTYPE svg PUBLIC "-//W3C//DTD SVG 1.1//EN" "http://www.w3.org/Graphics/SVG/1.1/DTD/svg11.dtd">
<svg xmlns="http://www.w3.org/2000/svg" version="1.1" viewBox="0.00 0.00 30.00 27.00">
<g stroke-width="2.00" fill="none" stroke-linecap="butt">
<path stroke="#fec69e" vector-effect="non-scaling-stroke" d="
  M 25.49 25.00
  A 2.35 2.35 0.0 0 0 27.53 21.48
  L 17.01 3.26
  A 2.35 2.35 0.0 0 0 12.94 3.26
  L 2.43 21.48
  A 2.35 2.35 0.0 0 0 4.47 25.00
  L 25.49 25.00"
/>
<path stroke="#fec69e" vector-effect="non-scaling-stroke" d="
  M 16.3874 8.0248
  A 0.92 0.92 0.0 0 0 15.4706 7.1016
  L 14.5706 7.0985
  A 0.92 0.92 0.0 0 0 13.6474 8.0152
  L 13.6126 17.9752
  A 0.92 0.92 0.0 0 0 14.5294 18.8984
  L 15.4294 18.9015
  A 0.92 0.92 0.0 0 0 16.3526 17.9848
  L 16.3874 8.0248"
/>
<path stroke="#fec69e" vector-effect="non-scaling-stroke" d="
  M 16.35 21.06
  A 1.35 1.35 0.0 0 0 15.00 19.71
  A 1.35 1.35 0.0 0 0 13.65 21.06
  A 1.35 1.35 0.0 0 0 15.00 22.41
  A 1.35 1.35 0.0 0 0 16.35 21.06"
/>
</g>
<path fill="#ffffff" d="
  M 16.11 0.00
  Q 17.88 0.68 18.95 2.52
  Q 24.49 12.07 30.00 21.68
  L 30.00 24.05
  Q 29.07 26.18 26.74 27.00
  L 3.35 27.00
  Q 1.00 26.28 0.00 24.12
  L 0.00 21.86
  Q 6.10 10.12 13.17 0.00
  L 16.11 0.00
  Z
  M 25.49 25.00
  A 2.35 2.35 0.0 0 0 27.53 21.48
  L 17.01 3.26
  A 2.35 2.35 0.0 0 0 12.94 3.26
  L 2.43 21.48
  A 2.35 2.35 0.0 0 0 4.47 25.00
  L 25.49 25.00
  Z"
/>
<path fill="#fd8d3c" d="
  M 25.49 25.00
  L 4.47 25.00
  A 2.35 2.35 0.0 0 1 2.43 21.48
  L 12.94 3.26
  A 2.35 2.35 0.0 0 1 17.01 3.26
  L 27.53 21.48
  A 2.35 2.35 0.0 0 1 25.49 25.00
  Z
  M 16.3874 8.0248
  A 0.92 0.92 0.0 0 0 15.4706 7.1016
  L 14.5706 7.0985
  A 0.92 0.92 0.0 0 0 13.6474 8.0152
  L 13.6126 17.9752
  A 0.92 0.92 0.0 0 0 14.5294 18.8984
  L 15.4294 18.9015
  A 0.92 0.92 0.0 0 0 16.3526 17.9848
  L 16.3874 8.0248
  Z
  M 16.35 21.06
  A 1.35 1.35 0.0 0 0 15.00 19.71
  A 1.35 1.35 0.0 0 0 13.65 21.06
  A 1.35 1.35 0.0 0 0 15.00 22.41
  A 1.35 1.35 0.0 0 0 16.35 21.06
  Z"
/>
<rect fill="#ffffff" x="-1.37" y="-5.90" transform="translate(15.00,13.00) rotate(0.2)" width="2.74" height="11.80" rx="0.92"/>
<circle fill="#ffffff" cx="15.00" cy="21.06" r="1.35"/>
</svg>
