<?xml version="1.0" encoding="UTF-8" standalone="no"?>
<!DOCTYPE svg PUBLIC "-//W3C//DTD SVG 1.1//EN" "http://www.w3.org/Graphics/SVG/1.1/DTD/svg11.dtd">
<svg xmlns="http://www.w3.org/2000/svg" version="1.1" viewBox="0.00 0.00 120.00 108.00">
<g stroke-width="2.00" fill="none" stroke-linecap="butt">
<path stroke="#ff9191" vector-effect="non-scaling-stroke" d="
  M 68.05 13.40
  A 9.40 9.40 0.0 0 0 51.77 13.40
  L 9.95 85.83
  A 9.40 9.40 0.0 0 0 18.09 99.93
  L 101.73 99.93
  A 9.40 9.40 0.0 0 0 109.87 85.83
  L 68.05 13.40"
/>
<path stroke="#ff9191" vector-effect="non-scaling-stroke" d="
  M 65.8288 32.2902
  A 4.11 4.11 0.0 0 0 61.7332 28.1659
  L 58.4332 28.1544
  A 4.11 4.11 0.0 0 0 54.3089 32.2500
  L 54.1712 71.7098
  A 4.11 4.11 0.0 0 0 58.2668 75.8341
  L 61.5668 75.8456
  A 4.11 4.11 0.0 0 0 65.6911 71.7500
  L 65.8288 32.2902"
/>
<path stroke="#ff9191" vector-effect="non-scaling-stroke" d="
  M 65.62 84.36
  A 5.66 5.66 0.0 0 0 59.96 78.70
  A 5.66 5.66 0.0 0 0 54.30 84.36
  A 5.66 5.66 0.0 0 0 59.96 90.02
  A 5.66 5.66 0.0 0 0 65.62 84.36"
/>
</g>
<path fill="#ffffff" d="
  M 64.63 0.00
  Q 71.77 3.15 75.84 10.16
  Q 98.01 48.40 120.00 86.75
  L 120.00 96.20
  Q 116.24 104.54 107.19 108.00
  L 13.16 108.00
  Q 4.12 104.95 0.00 96.60
  L 0.00 87.44
  Q 23.55 41.98 52.65 0.00
  L 64.63 0.00
  Z
  M 68.05 13.40
  A 9.40 9.40 0.0 0 0 51.77 13.40
  L 9.95 85.83
  A 9.40 9.40 0.0 0 0 18.09 99.93
  L 101.73 99.93
  A 9.40 9.40 0.0 0 0 109.87 85.83
  L 68.05 13.40
  Z"
/>
<path fill="#ff2222" d="
  M 68.05 13.40
  L 109.87 85.83
  A 9.40 9.40 0.0 0 1 101.73 99.93
  L 18.09 99.93
  A 9.40 9.40 0.0 0 1 9.95 85.83
  L 51.77 13.40
  A 9.40 9.40 0.0 0 1 68.05 13.40
  Z
  M 65.8288 32.2902
  A 4.11 4.11 0.0 0 0 61.7332 28.1659
  L 58.4332 28.1544
  A 4.11 4.11 0.0 0 0 54.3089 32.2500
  L 54.1712 71.7098
  A 4.11 4.11 0.0 0 0 58.2668 75.8341
  L 61.5668 75.8456
  A 4.11 4.11 0.0 0 0 65.6911 71.7500
  L 65.8288 32.2902
  Z
  M 65.62 84.36
  A 5.66 5.66 0.0 0 0 59.96 78.70
  A 5.66 5.66 0.0 0 0 54.30 84.36
  A 5.66 5.66 0.0 0 0 59.96 90.02
  A 5.66 5.66 0.0 0 0 65.62 84.36
  Z"
/>
<rect fill="#ffffff" x="-5.76" y="-23.84" transform="translate(60.00,52.00) rotate(0.2)" width="11.52" height="47.68" rx="4.11"/>
<circle fill="#ffffff" cx="59.96" cy="84.36" r="5.66"/>
</svg>
